# xmcd
#
# Track frame offsets:
#	151
#	7082
#	14937
#	19956
#	26089
#	32614
#	39187
#	44638
#	52270
#	58183
#	65720
#	73053
#	82402
#	90777
#	98268
#	107259
#	114080
#	121657
#	128552
#	137533
#	145246
#
# Disc length: 2103 seconds
#
# Revision: 0
# Processed by: cddbd v1.5.2PL0 Copyright (c) Steve Scherf et al.
# Submitted via: dBpowerAMP V4.0
#
DISCID=1d083515
DTITLE=Unknown Hinson - 21 Chart Toppers
DYEAR=1900
DGENRE=Country
TTITLE0=You Ain't Callin' The Law
TTITLE1=I'll Soon Get My Revenge
TTITLE2=Get The Hell On
TTITLE3=Don't Bother Me
TTITLE4=An Unknown Poem
TTITLE5=Baby
TTITLE6=When I Get Out
TTITLE7=Nevermind Your Male Horomones
TTITLE8=Put Down Your Picket Sign
TTITLE9=Love On Command
TTITLE10=Shimmy Shimmy Baby Lou
TTITLE11=I'm The King
TTITLE12=Mona Marie
TTITLE13=Baby, Let's Play Rough
TTITLE14=Knock Down, Drag Out Love Life
TTITLE15=She's A Lotta Woman
TTITLE16=Be the Woman
TTITLE17=I Ain't Afraid Of Your Husband
TTITLE18=Dirty Dog
TTITLE19=Black and Blue Christmas
TTITLE20=Don't Want No Trouble
EXTD=
EXTT0=
EXTT1=
EXTT2=
EXTT3=
EXTT4=
EXTT5=
EXTT6=
EXTT7=
EXTT8=
EXTT9=
EXTT10=
EXTT11=
EXTT12=
EXTT13=
EXTT14=
EXTT15=
EXTT16=
EXTT17=
EXTT18=
EXTT19=
EXTT20=
PLAYORDER=
